<?xml version="1.0" standalone="no"?>
<!DOCTYPE svg PUBLIC "-//W3C//DTD SVG 20010904//EN"
 "http://www.w3.org/TR/2001/REC-SVG-20010904/DTD/svg10.dtd">
<svg version="1.0" xmlns="http://www.w3.org/2000/svg"
 width="204.000000pt" height="204.000000pt" viewBox="0 0 204.000000 204.000000"
 preserveAspectRatio="xMidYMid meet">
<metadata>
Created by potrace 1.11, written by Peter Selinger 2001-2013
</metadata>
<g transform="translate(0.000000,204.000000) scale(0.100000,-0.100000)"
fill="#000000" stroke="none">
<path d="M1814 1882 c-300 -197 -656 -564 -860 -884 l-49 -77 -49 101 c-28 58
-66 118 -91 144 -35 38 -47 44 -81 44 -51 -1 -108 -27 -163 -77 l-44 -39 36
-23 c59 -36 110 -103 164 -213 42 -86 100 -224 127 -301 5 -17 10 -15 48 16
24 19 71 52 104 75 57 38 67 50 125 159 201 370 574 840 831 1047 47 38 47 38
30 62 -9 13 -22 24 -28 24 -7 0 -52 -26 -100 -58z"/>
<path d="M870 1724 c-473 -56 -806 -448 -777 -913 9 -128 29 -206 87 -326 310
-640 1222 -644 1545 -5 63 124 87 233 87 391 -1 177 -57 355 -155 492 l-35 48
-63 -78 c-34 -43 -67 -83 -71 -90 -6 -7 6 -42 32 -96 93 -192 92 -376 -1 -567
-33 -67 -59 -102 -123 -165 -128 -127 -267 -185 -446 -185 -289 0 -543 199
-615 485 -19 76 -19 224 0 300 53 210 219 386 430 456 90 31 268 34 357 6 l57
-17 78 81 c43 44 79 85 81 89 4 10 -117 58 -192 75 -66 15 -220 25 -276 19z"/>
</g>
</svg>
